<?xml version="1.0" encoding="UTF-8" standalone="no"?>
<svg
   viewBox="0 0 384 512"
   version="1.1"
   id="svg4"
   sodipodi:docname="building-solid.svg"
   inkscape:version="1.2.1 (9c6d41e410, 2022-07-14)"
   xmlns:inkscape="http://www.inkscape.org/namespaces/inkscape"
   xmlns:sodipodi="http://sodipodi.sourceforge.net/DTD/sodipodi-0.dtd"
   xmlns="http://www.w3.org/2000/svg"
   xmlns:svg="http://www.w3.org/2000/svg">
  <defs
     id="defs8" />
  <sodipodi:namedview
     id="namedview6"
     pagecolor="#ffffff"
     bordercolor="#000000"
     borderopacity="0.25"
     inkscape:showpageshadow="2"
     inkscape:pageopacity="0.0"
     inkscape:pagecheckerboard="0"
     inkscape:deskcolor="#d1d1d1"
     showgrid="false"
     inkscape:zoom="1.7128906"
     inkscape:cx="192.07298"
     inkscape:cy="256.2919"
     inkscape:window-width="1920"
     inkscape:window-height="1057"
     inkscape:window-x="-8"
     inkscape:window-y="-8"
     inkscape:window-maximized="1"
     inkscape:current-layer="svg4" />
  <!--! Font Awesome Pro 6.2.0 by @fontawesome - https://fontawesome.com License - https://fontawesome.com/license (Commercial License) Copyright 2022 Fonticons, Inc. -->
  <path
     d="M 48,0 C 21.5,0 0,21.5 0,48 v 416 c 0,26.5 21.5,48 48,48 h 96 v -80 c 0,-26.5 21.5,-48 48,-48 26.5,0 48,21.5 48,48 v 80 h 96 c 26.5,0 48,-21.5 48,-48 V 48 C 384,21.5 362.5,0 336,0 Z m 16,240 c 0,-8.8 7.2,-16 16,-16 h 32 c 8.8,0 16,7.2 16,16 v 32 c 0,8.8 -7.2,16 -16,16 H 80 c -8.8,0 -16,-7.2 -16,-16 z m 112,-16 h 32 c 8.8,0 16,7.2 16,16 v 32 c 0,8.8 -7.2,16 -16,16 h -32 c -8.8,0 -16,-7.2 -16,-16 v -32 c 0,-8.8 7.2,-16 16,-16 z m 80,16 c 0,-8.8 7.2,-16 16,-16 h 32 c 8.8,0 16,7.2 16,16 v 32 c 0,8.8 -7.2,16 -16,16 h -32 c -8.8,0 -16,-7.2 -16,-16 z M 80,96 h 32 c 8.8,0 16,7.2 16,16 v 32 c 0,8.8 -7.2,16 -16,16 H 80 c -8.8,0 -16,-7.2 -16,-16 v -32 c 0,-8.8 7.2,-16 16,-16 z m 80,16 c 0,-8.8 7.2,-16 16,-16 h 32 c 8.8,0 16,7.2 16,16 v 32 c 0,8.8 -7.2,16 -16,16 h -32 c -8.8,0 -16,-7.2 -16,-16 z M 272,96 h 32 c 8.8,0 16,7.2 16,16 v 32 c 0,8.8 -7.2,16 -16,16 h -32 c -8.8,0 -16,-7.2 -16,-16 v -32 c 0,-8.8 7.2,-16 16,-16 z"
     id="path2"
     style="fill:#000000" />
</svg>
