<?xml version="1.0" encoding="UTF-8" standalone="no"?>
<svg
   viewBox="0 0 512 512"
   version="1.1"
   id="svg4"
   sodipodi:docname="earth-americas-solid.svg"
   inkscape:version="1.2.1 (9c6d41e410, 2022-07-14)"
   xmlns:inkscape="http://www.inkscape.org/namespaces/inkscape"
   xmlns:sodipodi="http://sodipodi.sourceforge.net/DTD/sodipodi-0.dtd"
   xmlns="http://www.w3.org/2000/svg"
   xmlns:svg="http://www.w3.org/2000/svg">
  <defs
     id="defs8" />
  <sodipodi:namedview
     id="namedview6"
     pagecolor="#ffffff"
     bordercolor="#000000"
     borderopacity="0.25"
     inkscape:showpageshadow="2"
     inkscape:pageopacity="0.0"
     inkscape:pagecheckerboard="0"
     inkscape:deskcolor="#d1d1d1"
     showgrid="false"
     inkscape:zoom="1.7128906"
     inkscape:cx="255.7081"
     inkscape:cy="256.2919"
     inkscape:window-width="1920"
     inkscape:window-height="1057"
     inkscape:window-x="-8"
     inkscape:window-y="-8"
     inkscape:window-maximized="1"
     inkscape:current-layer="svg4" />
  <!--! Font Awesome Pro 6.2.0 by @fontawesome - https://fontawesome.com License - https://fontawesome.com/license (Commercial License) Copyright 2022 Fonticons, Inc. -->
  <path
     d="m 57.7,193 9.4,16.4 c 8.3,14.5 21.9,25.2 38,29.8 l 57.9,16.5 c 17.2,4.9 29,20.6 29,38.5 v 39.9 c 0,11 6.2,21 16,25.9 9.8,4.9 16,14.9 16,25.9 v 39 c 0,15.6 14.9,26.9 29.9,22.6 16.1,-4.6 28.6,-17.5 32.7,-33.8 l 2.8,-11.2 c 4.2,-16.9 15.2,-31.4 30.3,-40 l 8.1,-4.6 c 15,-8.5 24.2,-24.5 24.2,-41.7 v -8.3 C 352,295.2 346.9,283 337.9,274 L 334,270.1 C 325,261.1 312.8,256 300.1,256 H 257 c -11.1,0 -22.1,-2.9 -31.8,-8.4 l -34.5,-19.7 c -4.3,-2.5 -7.6,-6.5 -9.2,-11.2 -3.2,-9.6 1.1,-20 10.2,-24.5 l 5.9,-3 c 6.6,-3.3 14.3,-3.9 21.3,-1.5 l 23.2,7.7 c 8.2,2.7 17.2,-0.4 21.9,-7.5 4.7,-7 4.2,-16.3 -1.2,-22.8 l -13.6,-16.3 c -10,-12 -9.9,-29.5 0.3,-41.3 l 15.7,-18.3 c 8.8,-10.3 10.2,-25 3.5,-36.7 l -2.4,-4.2 C 262.8,48.1 259.4,48 255.9,48 163.1,48 84.4,108.9 57.7,193 Z M 464,256 c 0,-36.8 -9.6,-71.4 -26.4,-101.5 L 412,164.8 c -15.7,6.3 -23.8,23.8 -18.5,39.8 l 16.9,50.7 c 3.5,10.4 12,18.3 22.6,20.9 l 29.1,7.3 c 1.2,-9 1.8,-18.2 1.8,-27.5 z m 48,0 C 512,397.4 397.4,512 256,512 114.6,512 0,397.4 0,256 0,114.6 114.6,0 256,0 397.4,0 512,114.6 512,256 Z"
     id="path2"
     style="fill:#FFFFFF" />
</svg>
