<?xml version="1.0" encoding="UTF-8" standalone="no"?>
<svg
   viewBox="0 0 448 512"
   version="1.1"
   id="svg4"
   sodipodi:docname="share-nodes-solid.svg"
   inkscape:version="1.2.1 (9c6d41e410, 2022-07-14)"
   xmlns:inkscape="http://www.inkscape.org/namespaces/inkscape"
   xmlns:sodipodi="http://sodipodi.sourceforge.net/DTD/sodipodi-0.dtd"
   xmlns="http://www.w3.org/2000/svg"
   xmlns:svg="http://www.w3.org/2000/svg">
  <defs
     id="defs8" />
  <sodipodi:namedview
     id="namedview6"
     pagecolor="#ffffff"
     bordercolor="#000000"
     borderopacity="0.25"
     inkscape:showpageshadow="2"
     inkscape:pageopacity="0.0"
     inkscape:pagecheckerboard="0"
     inkscape:deskcolor="#d1d1d1"
     showgrid="false"
     inkscape:zoom="1.7128906"
     inkscape:cx="224.18244"
     inkscape:cy="256.2919"
     inkscape:window-width="1920"
     inkscape:window-height="1057"
     inkscape:window-x="-8"
     inkscape:window-y="-8"
     inkscape:window-maximized="1"
     inkscape:current-layer="svg4" />
  <!--! Font Awesome Pro 6.2.0 by @fontawesome - https://fontawesome.com License - https://fontawesome.com/license (Commercial License) Copyright 2022 Fonticons, Inc. -->
  <path
     d="m 352,224 c 53,0 96,-43 96,-96 0,-53 -43,-96 -96,-96 -53,0 -96,43 -96,96 0,4 0.2,8 0.7,11.9 l -94.1,47 C 145.4,170.2 121.9,160 96,160 43,160 0,203 0,256 c 0,53 43,96 96,96 25.9,0 49.4,-10.2 66.6,-26.9 l 94.1,47 c -0.5,3.9 -0.7,7.8 -0.7,11.9 0,53 43,96 96,96 53,0 96,-43 96,-96 0,-53 -43,-96 -96,-96 -25.9,0 -49.4,10.2 -66.6,26.9 l -94.1,-47 c 0.5,-3.9 0.7,-7.8 0.7,-11.9 0,-4.1 -0.2,-8 -0.7,-11.9 l 94.1,-47 c 17.2,16.7 40.7,26.9 66.6,26.9 z"
     id="path2"
     style="fill:#000000" />
</svg>
