<?xml version="1.0" encoding="UTF-8" standalone="no"?>
<svg
   viewBox="0 0 640 512"
   version="1.1"
   id="svg4"
   sodipodi:docname="users-solid.svg"
   inkscape:version="1.2.1 (9c6d41e410, 2022-07-14)"
   xmlns:inkscape="http://www.inkscape.org/namespaces/inkscape"
   xmlns:sodipodi="http://sodipodi.sourceforge.net/DTD/sodipodi-0.dtd"
   xmlns="http://www.w3.org/2000/svg"
   xmlns:svg="http://www.w3.org/2000/svg">
  <defs
     id="defs8" />
  <sodipodi:namedview
     id="namedview6"
     pagecolor="#ffffff"
     bordercolor="#000000"
     borderopacity="0.25"
     inkscape:showpageshadow="2"
     inkscape:pageopacity="0.0"
     inkscape:pagecheckerboard="0"
     inkscape:deskcolor="#d1d1d1"
     showgrid="false"
     inkscape:zoom="1.7128906"
     inkscape:cx="319.92702"
     inkscape:cy="256.2919"
     inkscape:window-width="1920"
     inkscape:window-height="1057"
     inkscape:window-x="-8"
     inkscape:window-y="-8"
     inkscape:window-maximized="1"
     inkscape:current-layer="svg4" />
  <!--! Font Awesome Pro 6.2.0 by @fontawesome - https://fontawesome.com License - https://fontawesome.com/license (Commercial License) Copyright 2022 Fonticons, Inc. -->
  <path
     d="M 144,160 C 99.8,160 64,124.2 64,80 64,35.8 99.8,0 144,0 c 44.2,0 80,35.8 80,80 0,44.2 -35.8,80 -80,80 z m 368,0 c -44.2,0 -80,-35.8 -80,-80 0,-44.2 35.8,-80 80,-80 44.2,0 80,35.8 80,80 0,44.2 -35.8,80 -80,80 z M 0,298.7 C 0,239.8 47.8,192 106.7,192 h 42.7 c 15.9,0 31,3.5 44.6,9.7 -1.3,7.2 -1.9,14.7 -1.9,22.3 0,38.2 16.8,72.5 43.3,96 -0.2,0 -0.4,0 -0.7,0 H 21.3 C 9.6,320 0,310.4 0,298.7 Z M 405.3,320 c -0.2,0 -0.4,0 -0.7,0 26.6,-23.5 43.3,-57.8 43.3,-96 0,-7.6 -0.7,-15 -1.9,-22.3 13.6,-6.3 28.7,-9.7 44.6,-9.7 h 42.7 c 58.9,0 106.7,47.8 106.7,106.7 0,11.8 -9.6,21.3 -21.3,21.3 z M 416,224 c 0,53 -43,96 -96,96 -53,0 -96,-43 -96,-96 0,-53 43,-96 96,-96 53,0 96,43 96,96 z M 128,485.3 C 128,411.7 187.7,352 261.3,352 H 378.7 C 452.3,352 512,411.7 512,485.3 512,500 500.1,512 485.3,512 H 154.7 C 140,512 128,500.1 128,485.3 Z"
     id="path2"
     style="fill:#000000" />
</svg>
